<svg id="Layer_1" data-name="Layer 1" xmlns="http://www.w3.org/2000/svg" viewBox="0 0 512 512"><title>database-server1-flat</title><path d="M0,256C0,114.61,114.61,0,256,0S512,114.63,512,256,397.38,512,256,512,0,397.39,0,256Z" fill="#00c7ff"/><path d="M256,267c-45.56,0-83.76-13.37-94.17-31.44a19.63,19.63,0,0,0-2.91,9.92V275c0,22.8,43.5,41.35,97.08,41.35S353.13,297.8,353.13,275V245.47a19.58,19.58,0,0,0-3-9.92C339.76,253.62,301.61,267,256,267Zm0,0" fill="#fff"/><path d="M256,328c-45.56,0-83.76-13.41-94.17-31.43a19.49,19.49,0,0,0-2.91,9.88V336c0,22.84,43.5,41.31,97.08,41.31s97.17-18.47,97.17-41.31V306.47a19.44,19.44,0,0,0-3-9.88C339.76,314.61,301.61,328,256,328Zm0,0" fill="#fff"/><path d="M350.46,176.49c-1.91,16.69-43.38,30.09-94.5,30.09s-92.54-13.4-94.45-30.09a19.68,19.68,0,0,0-2.63,9.44V215.5c0,22.8,43.5,41.31,97.08,41.31s97.17-18.47,97.17-41.31V185.93a19.72,19.72,0,0,0-2.66-9.44Zm0,0" fill="#fff"/><path d="M256,197.19c52.29,0,94.66-14,94.66-31.26S308.25,134.65,256,134.65s-94.62,14-94.62,31.27,42.37,31.26,94.62,31.26Zm0,0" fill="#fff"/></svg>